<svg width="18" height="19" viewBox="0 0 18 19" fill="none" xmlns="http://www.w3.org/2000/svg">
<g clip-path="url(#clip0_56617_14536)">
<path d="M15.9852 1.85773C15.5117 1.43401 13.6174 0.0382422 9.3553 0.0133176C9.3553 0.0133176 4.34547 -0.28578 1.90286 1.95743C0.532015 3.32828 0.0584473 5.29732 0.00859828 7.76485C-0.0412508 10.2324 -0.116018 14.8434 4.34547 16.1146V18.0337C4.34547 18.0337 4.32055 18.8064 4.81904 18.956C5.44215 19.1554 5.79109 18.5572 6.38928 17.9341C6.7133 17.5851 7.16194 17.0866 7.48596 16.6878C10.5268 16.9371 12.8697 16.3638 13.1438 16.2641C13.7669 16.0647 17.2315 15.6161 17.8047 11.005C18.4029 6.21953 17.5555 3.20366 15.9852 1.85773ZM16.5086 10.6312C16.0351 14.4945 13.2186 14.7437 12.6952 14.8933C12.4709 14.968 10.4271 15.4665 7.83491 15.317C7.83491 15.317 5.91572 17.635 5.2926 18.2581C5.1929 18.3578 5.0932 18.3827 5.01843 18.3827C4.91873 18.3578 4.89381 18.2331 4.89381 18.0587C4.89381 17.8094 4.91873 14.8683 4.91873 14.8683C1.15513 13.8215 1.37945 9.88343 1.40437 7.81469C1.45422 5.74596 1.8281 4.07601 2.97462 2.92948C5.04336 1.06014 9.30545 1.33431 9.30545 1.33431C12.8946 1.35924 14.6144 2.43099 15.0132 2.80486C16.3092 3.95139 16.9822 6.66817 16.5086 10.6312Z" fill="#717179"/>
<path d="M11.1 7.66521C11.0501 6.71804 10.5765 6.21953 9.6543 6.16968" stroke="#717179" stroke-width="0.42693" stroke-linecap="round" stroke-linejoin="round"/>
<path d="M12.3463 8.06406C12.3712 7.19166 12.0971 6.4439 11.5736 5.87062C11.0253 5.2724 10.2775 4.94837 9.33032 4.8736" stroke="#717179" stroke-width="0.42693" stroke-linecap="round" stroke-linejoin="round"/>
<path d="M13.5925 8.5626C13.5925 7.04215 13.1189 5.84572 12.2216 4.97333C11.3243 4.10094 10.2027 3.65228 8.85669 3.65228" stroke="#717179" stroke-width="0.42693" stroke-linecap="round" stroke-linejoin="round"/>
<path d="M9.70431 10.8804C9.70431 10.8804 10.0532 10.9054 10.2277 10.681L10.5767 10.2324C10.7511 10.0081 11.1499 9.85853 11.5736 10.0829C11.798 10.2075 12.1968 10.4567 12.446 10.6561C12.7202 10.8555 13.2685 11.3042 13.2685 11.3042C13.5427 11.5285 13.5925 11.8525 13.4181 12.2014C13.2436 12.5255 12.9943 12.8246 12.6703 13.0987C12.4211 13.323 12.1718 13.4227 11.9226 13.4726H11.8229C11.7232 13.4726 11.5986 13.4477 11.4989 13.4227C11.125 13.323 10.5019 13.0489 9.43013 12.4756C8.75717 12.1017 8.18391 11.7029 7.71034 11.3291C7.4611 11.1297 7.18693 10.9054 6.93768 10.6312L6.83798 10.5315C6.56381 10.2573 6.33949 10.0081 6.14009 9.75884C5.76623 9.28527 5.36743 8.712 4.99356 8.03904C4.4203 6.99221 4.14613 6.3691 4.04643 5.97031C4.02151 5.87061 3.99658 5.77091 3.99658 5.64629V5.54659C4.02151 5.29734 4.14613 5.0481 4.37045 4.79885C4.64462 4.49976 4.94372 4.25051 5.26773 4.05112C5.61668 3.87664 5.9407 3.92649 6.16502 4.20066C6.16502 4.20066 6.61366 4.74901 6.81306 5.02318C6.98753 5.27242 7.23677 5.67122 7.38632 5.89554C7.61064 6.29433 7.46109 6.71805 7.2617 6.89252L6.81306 7.24146C6.58874 7.41593 6.61366 7.76488 6.61366 7.76488C6.61366 7.76488 7.23678 10.2324 9.70431 10.8804Z" fill="#717179"/>
</g>
<defs>
<clipPath id="clip0_56617_14536">
<rect width="18" height="18.995" fill="white"/>
</clipPath>
</defs>
</svg>
