<svg width="36" height="36" viewBox="0 0 36 36" fill="none" xmlns="http://www.w3.org/2000/svg">
<path fill-rule="evenodd" clip-rule="evenodd" d="M24.3 10.4625C22.6125 8.775 20.3625 7.875 18 7.875C13.05 7.875 9 11.925 9 16.875C9 18.45 9.45001 20.025 10.2375 21.375L9 25.875L13.725 24.6375C15.075 25.3125 16.5375 25.7625 18 25.7625C22.95 25.7625 27 21.7125 27 16.7625C27 14.4 25.9875 12.15 24.3 10.4625ZM18 24.3C16.65 24.3 15.3 23.9625 14.175 23.2875L13.95 23.175L11.1375 23.9625L11.925 21.2625L11.7 20.925C10.9125 19.6875 10.575 18.3375 10.575 16.9875C10.575 12.9375 13.95 9.5625 18 9.5625C20.025 9.5625 21.825 10.35 23.2875 11.7C24.75 13.1625 25.425 14.9625 25.425 16.9875C25.425 20.925 22.1625 24.3 18 24.3ZM22.05 18.675C21.825 18.5625 20.7 18 20.475 18C20.25 17.8875 20.1375 17.8875 20.025 18.1125C19.9125 18.3375 19.4625 18.7875 19.35 19.0125C19.2375 19.125 19.125 19.125 18.9 19.125C18.675 19.0125 18 18.7875 17.1 18C16.425 17.4375 15.975 16.65 15.8625 16.425C15.75 16.2 15.8625 16.0875 15.975 15.975C16.0875 15.8625 16.2 15.75 16.3125 15.6375C16.425 15.525 16.425 15.4125 16.5375 15.3C16.65 15.1875 16.5375 15.075 16.5375 14.9625C16.5375 14.85 16.0875 13.725 15.8625 13.275C15.75 12.9375 15.525 12.9375 15.4125 12.9375C15.3 12.9375 15.1875 12.9375 14.9625 12.9375C14.85 12.9375 14.625 12.9375 14.4 13.1625C14.175 13.3875 13.6125 13.95 13.6125 15.075C13.6125 16.2 14.4 17.2125 14.5125 17.4375C14.625 17.55 16.0875 19.9125 18.3375 20.8125C20.25 21.6 20.5875 21.375 21.0375 21.375C21.4875 21.375 22.3875 20.8125 22.5 20.3625C22.725 19.8 22.725 19.35 22.6125 19.35C22.5 18.7875 22.275 18.7875 22.05 18.675Z" fill="#717179"/>
</svg>
