<svg width="36" height="36" viewBox="0 0 36 36" fill="none" xmlns="http://www.w3.org/2000/svg">
<path d="M10.0827 17.7024C14.3106 15.956 17.1298 14.8047 18.5404 14.2484C22.568 12.6602 23.4049 12.3843 23.9504 12.3751C24.0703 12.3732 24.3386 12.4014 24.5123 12.535C24.6591 12.6479 24.6994 12.8004 24.7187 12.9074C24.7381 13.0144 24.7621 13.2582 24.743 13.4487C24.5247 15.6229 23.5804 20.8991 23.0999 23.3342C22.8966 24.3646 22.4963 24.7101 22.1088 24.7439C21.2666 24.8173 20.627 24.2162 19.8113 23.7092C18.5349 22.9159 17.8138 22.4221 16.5748 21.648C15.1429 20.7534 16.0711 20.2617 16.8872 19.4582C17.1007 19.2479 20.8115 16.0479 20.8833 15.7576C20.8923 15.7213 20.9006 15.5859 20.8158 15.5145C20.731 15.443 20.6059 15.4675 20.5156 15.4869C20.3875 15.5144 18.3484 16.7923 14.3982 19.3203C13.8194 19.6971 13.2952 19.8807 12.8254 19.8711C12.3076 19.8605 11.3115 19.5935 10.571 19.3653C9.66281 19.0854 8.94096 18.9374 9.00382 18.4621C9.03656 18.2145 9.39619 17.9612 10.0827 17.7024Z" fill="#717179"/>
</svg>
