<svg width="20" height="20" viewBox="0 0 20 20" fill="none" xmlns="http://www.w3.org/2000/svg">
<path d="M11.6666 2.53381C9.56297 2.44868 7.63464 2.52434 5.19879 2.76051C4.32945 2.8448 3.63524 3.61526 3.55482 4.59319C3.36309 6.92466 3.30455 8.85038 3.34572 10.8333C3.3486 10.9719 3.35196 11.1107 3.3558 11.25M11.6666 2.53381L16.6194 7.48659M11.6666 2.53381V5.40325C11.6666 6.55385 12.5993 7.48659 13.7499 7.48659H16.6194M16.6194 7.48659C16.6653 8.63381 16.6771 9.72217 16.6575 10.8333C16.655 10.9718 16.6521 11.1107 16.6487 11.25" stroke="#717179" stroke-width="1.5" stroke-linecap="round"/>
<path d="M16.75 13.8334H14.5625V17.5834" stroke="#717179" stroke-width="1.5" stroke-linecap="round" stroke-linejoin="round"/>
<path d="M3.625 16.25H4.875C5.20652 16.25 5.52446 16.1183 5.75888 15.8839C5.9933 15.6495 6.125 15.3315 6.125 15C6.125 14.6685 5.9933 14.3505 5.75888 14.1161C5.52446 13.8817 5.20652 13.75 4.875 13.75H3.625V17.5" stroke="#717179" stroke-width="1.5" stroke-linecap="round" stroke-linejoin="round"/>
<path d="M16.4375 15.9375H14.5625" stroke="#717179" stroke-width="1.5" stroke-linecap="round" stroke-linejoin="round"/>
<path d="M11.2008 16.9508C10.8492 17.3025 10.3723 17.5 9.875 17.5H8.78125V13.75H9.875C10.3723 13.75 10.8492 13.9475 11.2008 14.2992C11.5525 14.6508 11.75 15.1277 11.75 15.625C11.75 16.1223 11.5525 16.5992 11.2008 16.9508Z" stroke="#717179" stroke-width="1.5" stroke-linecap="round" stroke-linejoin="round"/>
</svg>
